<svg width="45" height="43" viewBox="0 0 45 43" fill="none" xmlns="http://www.w3.org/2000/svg">
    <path d="M43.1606 21.5234C43.1606 32.5316 33.8587 41.5234 22.2987 41.5234C10.7387 41.5234 1.43677 32.5316 1.43677 21.5234C1.43677 10.5153 10.7387 1.52344 22.2987 1.52344C33.8587 1.52344 43.1606 10.5153 43.1606 21.5234Z" stroke="#006BF8" stroke-width="2"/>
    <path d="M25.2267 29.3984L25.2267 16.3625L23.1267 18.3798C22.6692 18.8192 21.9281 18.8192 21.4706 18.3798C21.2411 18.1625 21.1276 17.8742 21.1276 17.5859C21.1276 17.2977 21.242 17.0101 21.4708 16.7907L25.5699 12.8532C26.0274 12.4137 26.7685 12.4137 27.226 12.8532L31.3251 16.7907C31.7826 17.2302 31.7826 17.9421 31.3251 18.3815C30.8676 18.821 30.1265 18.821 29.669 18.3815L27.5691 16.3625L27.5691 29.3984C27.5691 30.0204 27.0454 30.5234 26.3979 30.5234C25.7505 30.5234 25.2267 30.0204 25.2267 29.3984ZM19.3709 13.6484L19.3709 26.6809L21.4709 24.6636C21.9284 24.2241 22.6696 24.2241 23.1271 24.6636C23.5845 25.103 23.5845 25.815 23.1271 26.2544L19.0279 30.1919C18.5704 30.6314 17.8293 30.6314 17.3718 30.1919L13.2727 26.2544C13.0429 26.0375 12.9294 25.7492 12.9294 25.4609C12.9294 25.1727 13.0438 24.8851 13.2725 24.6657C13.73 24.2263 14.4711 24.2263 14.9286 24.6657L17.0285 26.6809L17.0285 13.6484C17.0285 13.0265 17.5523 12.5234 18.1997 12.5234C18.8471 12.5234 19.3709 13.0262 19.3709 13.6484Z" fill="#006BF8"/>
</svg>
