<svg width="25" height="25" viewBox="0 0 25 25" fill="none" xmlns="http://www.w3.org/2000/svg">
    <g clip-path="url(#clip0_2001_2342)">
        <rect x="0.763184" y="0.046875" width="24" height="24" rx="12" fill="white"/>
        <rect x="24.7632" y="0.046875" width="12.0002" height="24" transform="rotate(90 24.7632 0.046875)" fill="white"/>
        <rect x="13.469" y="0.046875" width="12.0002" height="12.7059" transform="rotate(90 13.469 0.046875)" fill="#3A65B9"/>
        <rect x="24.7632" y="20.341" width="3.70589" height="24" transform="rotate(90 24.7632 20.341)" fill="#EB4848"/>
        <rect x="24.7632" y="12.0471" width="3.70589" height="24" transform="rotate(90 24.7632 12.0471)" fill="#EB4848"/>
        <rect x="24.7632" y="4.19403" width="3.70589" height="11.2941" transform="rotate(90 24.7632 4.19403)" fill="#EB4848"/>
        <g clip-path="url(#clip1_2001_2342)">
            <rect x="0.763184" y="0.335938" width="24" height="24" rx="12" fill="white"/>
            <g clip-path="url(#clip2_2001_2342)">
                <rect x="1" width="24" height="24" rx="12" fill="white"/>
                <rect x="25" width="12.0002" height="24" transform="rotate(90 25 0)" fill="white"/>
                <rect x="13.7058" width="12.0002" height="12.7059" transform="rotate(90 13.7058 0)" fill="#3A65B9"/>
                <rect x="25" y="20.2941" width="3.70589" height="24" transform="rotate(90 25 20.2941)" fill="#EB4848"/>
                <rect x="25" y="12.0002" width="3.70589" height="24" transform="rotate(90 25 12.0002)" fill="#EB4848"/>
                <rect x="25" y="4.14716" width="3.70589" height="11.2941" transform="rotate(90 25 4.14716)" fill="#EB4848"/>
            </g>
        </g>
        <rect x="1.26318" y="0.835938" width="23" height="23" rx="11.5" stroke="#C6C6C6"/>
    </g>
    <rect x="1.26318" y="0.546875" width="23" height="23" rx="11.5" stroke="#E0E0E0"/>
    <defs>
        <clipPath id="clip0_2001_2342">
            <rect x="0.763184" y="0.046875" width="24" height="24" rx="12" fill="white"/>
        </clipPath>
        <clipPath id="clip1_2001_2342">
            <rect x="0.763184" y="0.335938" width="24" height="24" rx="12" fill="white"/>
        </clipPath>
        <clipPath id="clip2_2001_2342">
            <rect x="1" width="24" height="24" rx="12" fill="white"/>
        </clipPath>
    </defs>
</svg>
